# xmcd
#
# Track frame offsets:
#	150
#	11315
#	21587
#	32985
#	44688
#	55978
#	67259
#	78631
#	87930
#	99161
#	110519
#	120770
#	131403
#	144086
#	153645
#	165018
#	177244
#	187921
#	199672
#	211298
#	223514
#	234438
#
# Disc length: 3254 seconds
#
# Revision: 0
# Processed by: cddbd v1.5.2PL0 Copyright (c) Steve Scherf et al.
# Submitted via: EasyCDDAExtractor 8.2.3.1
#
DISCID=240cb416
DTITLE=Liz Anderson - (My Friends Are Gonna Be) Strangers -66 and Liz Anderson S
DTITLE=ings -67
DYEAR=1967
DGENRE=Country
TTITLE0=My Friends Are Gonna Be Strangers
TTITLE1=Pick Of The Week
TTITLE2=Just Between The Two Of Us
TTITLE3=I Cried All The Way To The Bank
TTITLE4=The Worst Is Yet To Come
TTITLE5=Go Now  Pay Later
TTITLE6=Why  Where And When
TTITLE7=The Words I'm Gonna Have To Eat
TTITLE8=The Bottle Turned Into A Blonde
TTITLE9=Be Gone
TTITLE10=No One Will Ever Know
TTITLE11=Walk Out Backwards
TTITLE12=So Much For Me
TTITLE13=Tippy Toeing
TTITLE14=100 Times Today
TTITLE15=Be Quiet Mind
TTITLE16=To The Lanlord
TTITLE17=I've Cried The Rain Before
TTITLE18=Too Many Rivers
TTITLE19=Mama Spank
TTITLE20=How To Break Up
TTITLE21=Release Me
EXTD=
EXTT0=
EXTT1=
EXTT2=
EXTT3=
EXTT4=
EXTT5=
EXTT6=
EXTT7=
EXTT8=
EXTT9=
EXTT10=
EXTT11=
EXTT12=
EXTT13=
EXTT14=
EXTT15=
EXTT16=
EXTT17=
EXTT18=
EXTT19=
EXTT20=
EXTT21=
PLAYORDER=
